<svg xmlns="http://www.w3.org/2000/svg" viewBox="0 0 48 48" width="48" height="48" fill="none" role="img" aria-label="睿阁 favicon">
  <rect width="48" height="48" rx="10" fill="#FBF7F2"/>
  <g>
    <path d="M24 6 L27 11 L21 11 Z" fill="#CB6B3D"/>
    <path d="M15.5 16 Q24 13 32.5 16" stroke="#CB6B3D" stroke-width="3" stroke-linecap="round"/>
    <path d="M15.5 16 l-2 -2 M32.5 16 l2 -2" stroke="#CB6B3D" stroke-width="3" stroke-linecap="round"/>
    <line x1="20" y1="17" x2="20" y2="23.5" stroke="#CB6B3D" stroke-width="2.6" stroke-linecap="round"/>
    <line x1="28" y1="17" x2="28" y2="23.5" stroke="#CB6B3D" stroke-width="2.6" stroke-linecap="round"/>
    <path d="M12.5 25 Q24 22 35.5 25" stroke="#CB6B3D" stroke-width="3" stroke-linecap="round"/>
    <path d="M12.5 25 l-2.5 -2.2 M35.5 25 l2.5 -2.2" stroke="#CB6B3D" stroke-width="3" stroke-linecap="round"/>
    <path d="M14 26.5 L34 26.5 L37 40 L11 40 Z M20.5 40 L20.5 33.5 Q24 30.5 27.5 33.5 L27.5 40 Z" fill="#CB6B3D" fill-rule="evenodd"/>
  </g>
</svg>
