<svg xmlns="http://www.w3.org/2000/svg" viewBox="0 0 48 48" width="48" height="48" fill="none" role="img" aria-label="睿阁 logo mark">
  <!-- 宝顶 -->
  <path d="M24 4 L27 9 L21 9 Z" fill="currentColor"/>
  <!-- 顶层飞檐 -->
  <path d="M15.5 14.5 Q24 11.5 32.5 14.5" stroke="currentColor" stroke-width="3" stroke-linecap="round"/>
  <path d="M15.5 14.5 l-2 -2 M32.5 14.5 l2 -2" stroke="currentColor" stroke-width="3" stroke-linecap="round"/>
  <!-- 顶层立柱（书脊意象） -->
  <line x1="20" y1="15.5" x2="20" y2="22.5" stroke="currentColor" stroke-width="2.6" stroke-linecap="round"/>
  <line x1="28" y1="15.5" x2="28" y2="22.5" stroke="currentColor" stroke-width="2.6" stroke-linecap="round"/>
  <!-- 中层飞檐 -->
  <path d="M12.5 24 Q24 21 35.5 24" stroke="currentColor" stroke-width="3" stroke-linecap="round"/>
  <path d="M12.5 24 l-2.5 -2.2 M35.5 24 l2.5 -2.2" stroke="currentColor" stroke-width="3" stroke-linecap="round"/>
  <!-- 基座 + 拱门负空间（evenodd 挖空） -->
  <path d="M14 25.5 L34 25.5 L37 40 L11 40 Z M20.5 40 L20.5 33 Q24 30 27.5 33 L27.5 40 Z" fill="currentColor" fill-rule="evenodd"/>
</svg>
